<svg xmlns="http://www.w3.org/2000/svg" xml:space="preserve" width="158.252" height="107.621" viewBox="0 0 41.871 28.475"><g transform="translate(-63.846 -132.186)"><path d="M92.309 149.763c.844.804 1.111.82 1.62 1.159m-5.646-14.779c-3.419-1.112-3.691-3.187-10.157-3.624-11.262-.105-16.457 13.332-12.753 18.448 3.704 5.116 6.636 3.445 8.748 5.63 2.11 2.184 3.216 4.27 4.926 3.61 2.3-1.073-1.92-6.163-5.306-8.256 1.548-.661 6.032-.038 8.998-.02 1.158-.091 2.446-.08 3.185-.995 3 .355 2.062-.821 4.786 1.698.641.584 1.774 2.601 2.753 3.27 1.003.686 2.833-.732 2.235-2.005-.515-1.082-1.179-2.123-1.708-2.977 2.965.794 4.985-1.77 7.66-4.39.977-1.105 1.325-3.8 1.946-4.298 1.305-.71 1.917-1.65 1.766-3.294-3.235-.353-4.344-1.01-7.465-1.97-4.226-1.314-6.604-.541-9.325-1.69 0 0-.988 1.813-.561 2.92" style="fill:#000;fill-opacity:1;stroke:#000;stroke-width:.665001;stroke-dasharray:none;stroke-opacity:1"/><path d="M102.96 140.538c1.403.093 1.781-.607 2.463-1.598" style="fill:none;fill-opacity:1;stroke:#000;stroke-width:.365001;stroke-dasharray:none;stroke-opacity:1"/><path d="M90.791 125.454s.237-.34.212-.547c-.05-1.028-.758-1.55-1.753-1.803-1.99-.44-3.661-.608-5.937-1.023.108-1.521.582-3.667-2.558-5.806" class="UnoptimicedTransforms" style="fill:none;fill-opacity:1;stroke:#000;stroke-width:.665;stroke-dasharray:none;stroke-opacity:1" transform="rotate(-5.27 365.046 191.042)"/><path d="M89.554 137.757c.112-.983-.493-1.703-.92-2.539M92.335 145.379c1.353.798 1.627 1.308 1.877 2.365M96.456 148.23c1.137-1.002 1.923-.925 2.786-.988" style="fill:none;fill-opacity:1;stroke:#000;stroke-width:.365001;stroke-dasharray:none;stroke-opacity:1"/><ellipse cx="119.034" cy="122.581" rx=".745" ry=".541" style="fill:#000;fill-opacity:1;stroke:none;stroke-width:.365488;stroke-dasharray:none;stroke-opacity:1" transform="matrix(.9707 .2401 -.1686 .9857 0 0)"/><path d="m92.424 148.078-5.288-2.751M92.127 148.65l-4.732-1.492M92.235 149.253l-6.373-1.046M98.215 149.46l6.59-.012M97.454 150.096l6.172.872M97.07 150.603l6.758 2.513" style="fill:none;fill-opacity:1;stroke:#000;stroke-width:.3;stroke-dasharray:none;stroke-opacity:1"/><path d="m98.175 149.544 6.589-.012M97.414 150.18l6.171.872M97.03 150.687l6.758 2.514" style="fill:#000;fill-opacity:1;stroke:#000;stroke-width:.1;stroke-dasharray:none;stroke-opacity:1"/><path d="M95.273 155.26c-.019-.406-.195-.612-.475-.807M94.678 155.842c-.019-.407-.195-.613-.475-.808M85.837 150.755c-.207-.35-.46-.45-.798-.49M85.496 151.228c-.277-.297-.545-.34-.884-.307" style="fill:none;fill-opacity:1;stroke:#000;stroke-width:.365;stroke-dasharray:none;stroke-opacity:1"/><path d="M73.74 151.951c-2.694-.793-3.871-2.09-4.09-3.64" style="fill:none;fill-opacity:1;stroke:#000;stroke-width:.665;stroke-dasharray:none;stroke-opacity:1"/></g></svg>
