<svg xmlns="http://www.w3.org/2000/svg" xml:space="preserve" width="158.25" height="107.62" viewBox="0 0 41.87 28.47"><g transform="translate(-131.62 -111.62)"><path d="M97.26 124.87c.76.88 1.03.92 1.5 1.3m-4.26-15.23c-3.3-1.42-3.38-3.51-9.78-4.54-11.2-1.14-17.61 11.76-14.4 17.2 3.22 5.43 6.3 4.04 8.2 6.4 1.9 2.38 2.8 4.55 4.57 4.05 2.39-.85-1.35-6.3-4.52-8.7 1.6-.52 4.03.33 6.99.62 1.16.02 2.44.14 3.26-.7 2.95.63 4.1-.44 6.58 2.32.59.64 1.53 2.75 2.44 3.5.94.78 2.89-.46 2.41-1.79-.41-1.12-.98-2.22-1.43-3.12 2.88 1.06 5.13-1.3 8.03-3.67 1.08-1 1.67-3.66 2.34-4.1 1.36-.58 2.06-1.46 2.06-3.11-3.19-.65-4.23-1.4-7.25-2.65-4.09-1.7-6.53-1.15-9.13-2.54 0 0-1.15 1.71-.83 2.85" style="fill:#fff;fill-opacity:1;stroke:#000;stroke-width:.665001;stroke-dasharray:none;stroke-opacity:1" transform="rotate(-5.27 175.65 -555.17)"/><path d="M108.71 116.67c1.39.22 1.83-.44 2.6-1.37" style="fill:none;fill-opacity:1;stroke:#000;stroke-width:.365001;stroke-dasharray:none;stroke-opacity:1" transform="rotate(-5.27 175.65 -555.17)"/><path d="M88.82 125.27s.24-.34.21-.54c-.05-1.03-.76-1.55-1.75-1.8-2-.45-1.7-.43-3.97-.85.11-1.52.59-3.67-2.56-5.8" class="UnoptimicedTransforms" style="fill:none;fill-opacity:1;stroke:#000;stroke-width:.665;stroke-dasharray:none;stroke-opacity:1" transform="rotate(-5.27 175.65 -555.17)"/><path d="M95.62 112.67c.2-.97-.34-1.75-.69-2.62M97.69 120.51c1.27.92 1.5 1.45 1.65 2.53M101.53 123.73c1.22-.9 2-.75 2.86-.73" style="fill:none;fill-opacity:1;stroke:#000;stroke-width:.365001;stroke-dasharray:none;stroke-opacity:1" transform="rotate(-5.27 175.65 -555.17)"/><ellipse cx="129.05" cy="85.29" rx=".75" ry=".54" style="fill:#000;fill-opacity:1;stroke:none;stroke-width:.365488;stroke-dasharray:none;stroke-opacity:1" transform="matrix(.9707 .2401 -.1686 .9857 51.76 13.8)"/><g style="stroke-width:.3;stroke-dasharray:none"><path d="m99.76 123.08-4.7-3.66M99.36 123.6l-4.38-2.33M99.36 124.2l-6.08-2.18M105.2 125.49l6.49 1.17M104.34 125.97l5.92 1.98M103.87 126.4l6.2 3.7" style="fill:none;fill-opacity:1;stroke:#000;stroke-width:.3;stroke-dasharray:none;stroke-opacity:1" transform="rotate(-10.4 154.33 -206.8)"/></g><path d="M99.7 130.62c.02-.4-.13-.63-.4-.85M99.06 131.14c.02-.4-.14-.62-.4-.84M88.72 125.08c-.17-.37-.41-.49-.75-.56M88.34 125.52c-.25-.32-.51-.39-.85-.39" style="fill:none;fill-opacity:1;stroke:#000;stroke-width:.365;stroke-dasharray:none;stroke-opacity:1" transform="rotate(-5.27 175.65 -555.17)"/><path d="M141.52 131.39c-2.7-.8-3.88-2.1-4.1-3.64" style="fill:none;fill-opacity:1;stroke:#000;stroke-width:.665;stroke-dasharray:none;stroke-opacity:1"/></g></svg>