<svg xmlns="http://www.w3.org/2000/svg" xml:space="preserve" id="Layer_1" x="0" y="0" style="enable-background:new 0 0 445 112" version="1.1" viewBox="0 0 445 112"><style id="style132" type="text/css">.st0{fill-rule:evenodd;clip-rule:evenodd}</style><g id="Logo_Big"><path id="XMLID_12_" d="m200.4 0 1.7.3a22.1 22.1 0 0 1 18.7 20.3v5.3l8.8-4.6-.1.8-1.8 8.9c-.1.6 0 .9.4 1.4a22.4 22.4 0 0 1 6.2 18.8c-.4 3.2-1.4 6.2-2.2 9.3l-3.8 14.1-3.4 13.9L223 98l-.5 2.1c-.5 2.1-2.8 2.5-4.3 1.4-.3-.2-.5-.6-.6-1-.2-1-.5-2-.6-3.1-.3-3-.1-5.9 0-8.9l.2-6.9c.1-1.9.2-3.9.1-5.8 0-.9-.2-1.9-.4-2.8l-.5-1.1a3.2 3.2 0 0 0-5.2-.4 6 6 0 0 0-1.3 2.8l-.2 1.8.2 8.9-.1 4.7-.2.9c-.2.7-.6 1.1-1.3 1.2a7 7 0 0 1-2.9 0c-.7-.1-1.1-.6-1.5-1.1-.6-.8-.9-1.7-1.1-2.7l-1-4.6-3.5-12.4-4.1-16.4c-.6-2.3-.9-4.7-1-7.1-.1-6 1.7-11.2 6-15.5.4-.4.5-.8.4-1.3l-1.6-8.2-.1-.9 8.8 4.6.1-.2-.2-4.5c-.2-3.2-3-5.3-5.9-5.3h-35.9l-84.3.1H22.2c-3.1 0-5.3 1.7-6 4.6-.8 3.2 1.7 6.5 4.9 6.9l1.5.1h149.9a17.2 17.2 0 0 1 18.2 14.6 17 17 0 0 1-9.5 17.9l.6.5 6.7 6a6.8 6.8 0 1 1-9.1 10.1l-13.9-12.5-2.4-2.2c-.3-.2-.5-.4-.9-.4H148V71.5a7 7 0 0 1-3.6 6.2 7.2 7.2 0 0 1-10.8-5.2l-.1-1.8V41.5c-.6-.2-15.1-.3-16.7-.1l-.1.6.1 28.7c0 2.2-.5 4.2-2.1 5.7-2.2 2.1-4.8 2.8-7.6 1.7a6.9 6.9 0 0 1-4.8-6.2c-.2-2.1-.1-4.1-.1-6.2V41.3H85.7l.1.5c1 2.7 1.4 5.6 1.3 8.5v5.5a21.8 21.8 0 0 1-21.8 22.4H9a9 9 0 0 1-8.8-7.4L0 70v-1.1l.3-.9c.8-3.7 2.9-6 6.5-7.1 1.2-.3 2.4-.3 3.6-.3h55.4a5.7 5.7 0 0 0 5.6-5.6v-5.7a6 6 0 0 0-2.4-4.6 6.3 6.3 0 0 0-3.8-1.1H22.5A21.5 21.5 0 0 1 .4 25.4L0 22.6v-1.8l.4-2.6C1.8 9.3 8.7 2.2 17.5.4l2.2-.4h180.7zm-52.2 48.2h26.2c2-.2 3.2-1.6 3.1-3.6-.1-1.6-1.3-3.2-3.3-3.2h-25.9l-.1 6.8zm70-2.6a4 4 0 0 0-4.1-4.1 4.1 4.1 0 1 0 4.1 4.1z" class="st0" style="fill:#fff;fill-opacity:1"/><path id="XMLID_11_" d="m0 100.1.3-1.3a10 10 0 0 1 8.9-8.7L12 90h189.7l.5 1c.5 1 1.2 1.8 2.3 2.2 1.8.6 3.6.6 5.4-.2.7-.3 1.2-1 1.5-1.7l.5-1.4h3.4v6c0 1.6.2 3.2.7 4.7a3.8 3.8 0 0 0 3.4 2.9c1.7.3 3.3-.2 4.3-1.7.3-.5.6-1 .7-1.6l1.8-8.7.3-1.7h27.3V66.1l-2.7-1.1a24 24 0 0 1-13.7-18.3c-.3-1.6-.2-3.2-.2-4.7v-7.3a6.7 6.7 0 0 1 8.1-7c2.8.6 5 2.8 5.4 5.6l.1 1.4v8.6c.1 3.2 1.2 6 3.9 8a9.8 9.8 0 0 0 10.1 1.5 9.7 9.7 0 0 0 6.3-8.1l.1-1.6v-8.8c0-3 1.9-5.5 4.7-6.4 4-1.3 8.2 1.4 8.8 5.5l.1 1.8v8.1A24 24 0 0 1 268 66.1l-.6.2v23.5h166.3c1.6 0 3.1.1 4.6.7 3.6 1.3 5.7 4 6.6 7.7l.2 1.1v2.9l-.2 1.2a10 10 0 0 1-7.6 8c-1.4.4-2.9.4-4.3.4H11.3l-2-.1c-4.9-.8-8.4-4.4-9.1-9.4l-.3-1.2.1-1z" class="st0" style="fill:#fff;fill-opacity:1"/><path id="XMLID_9_" d="m438.1 0 1 .3a7.9 7.9 0 0 1-.9 15.5l-1.5.1H310.5c-1.8 0-3.3.5-4.6 1.8a6 6 0 0 0-1.6 3.8V55.9a5.9 5.9 0 0 0 5.6 6.3H335.7V45.5c0-4.9 1.6-9.2 5-12.7 3.4-3.4 7.5-5.1 12.3-5.1h83.6c1 0 2.1 0 3.1.2a6.8 6.8 0 0 1-.3 13.4l-1.5.1h-16.4v30.5a7.3 7.3 0 0 1-7.3 6.8c-3.8 0-7-3-7.2-6.8V41.4h-16.5l.2 1.5.1 2.3v26.3c0 3.6-2.2 5.9-4.5 6.7a6.8 6.8 0 0 1-9.1-5.6l-.1-1.8v-7c-.6-.2-26.6-.2-27.7 0V72c0 2.9-1.9 5.4-4.6 6.3-.7.2-1.5.4-2.3.4-10.7 0-21.5.1-32.2 0a21 21 0 0 1-19.6-12.1 20 20 0 0 1-2.2-8.6V23.7c0-2 0-4 .4-6a21.4 21.4 0 0 1 19-17.6l.7-.1h129.5zM377 50v-5.5a3.3 3.3 0 0 0-2.5-3l-1.4-.2h-19.8c-.5 0-1 0-1.5.2a3.3 3.3 0 0 0-2.4 3.2v4.9l.1.4H377z" class="st0" style="fill:#fff;fill-opacity:1"/></g></svg>